<svg xmlns="http://www.w3.org/2000/svg" viewBox="0 0 44.82 44.82"><defs><style>.cls-1{fill:#f8f9fa;stroke:#f09100;stroke-miterlimit:10;}.cls-2{fill:#f09100;}</style></defs><title>loggo</title><g id="Capa_2" data-name="Capa 2"><circle class="cls-1" cx="22.41" cy="22.41" r="21.91"/></g><g id="Capa_1" data-name="Capa 1"><path class="cls-2" d="M38.23,20.9a1.88,1.88,0,0,1,2,1.75V23a2.22,2.22,0,0,1-.51,1.41,2.1,2.1,0,0,1-3,0l0,0a2.11,2.11,0,0,1-.58-1.53,1.93,1.93,0,0,1,1.84-2h0Z"/><path class="cls-2" d="M11,20.38l-.07.12c-.15.3,0,.54.3.54.66.06.66.06.69.73,0,.38,0,.38-.38.38-.76,0-.7,0-.7.69a.74.74,0,0,0,0,.21c0,.25-.06.35-.33.35a4.05,4.05,0,0,0-.5.12c-.08,0-.23,0-.24-.1a15,15,0,0,1-.18-1.64,11.08,11.08,0,0,1,.19-1.52.32.32,0,0,1,.22-.1A8.49,8.49,0,0,1,11,20.38Z"/><path class="cls-2" d="M23.9,20.93h1.53c.18,0,.23.06.23.22v.79c0,.16-.06.24-.24.24h-3c-.16,0-.23-.07-.23-.23v-.79c0-.17,0-.24.24-.23Z"/><path class="cls-2" d="M14.88,20.93h1.4c.17,0,.22.05.22.22v.78c0,.17-.06.25-.23.25H13.43c-.15,0-.24,0-.24-.22v-.84c0-.16.07-.2.22-.19Z"/><path class="cls-2" d="M19.32,20.92h1.43c.16,0,.21.06.21.2V22c0,.18-.08.23-.25.23H17.94c-.17,0-.26-.05-.26-.23v-.82c0-.15.06-.21.21-.2Z"/><path class="cls-2" d="M28.43,20.92h1.43c.14,0,.22,0,.22.19V22c0,.17-.09.21-.24.21H27c-.18,0-.24-.08-.24-.25v-.78c0-.17.06-.22.23-.22Z"/><path class="cls-2" d="M15,13.28l-.15.18c-.59.59-1.19,1.17-1.77,1.77a.25.25,0,0,1-.34.09h-.05c-.17-.14-.34-.28-.5-.44a.3.3,0,0,1,0-.26,7.67,7.67,0,0,1,1.55-1.81c.13-.11.24-.23.37-.33s.3-.17.42,0,.25.35.37.54Z"/><path class="cls-2" d="M17.88,32.91l-.37,1.23-2.08-1.09c-.21-.11-.41-.22-.63-.31s-.3-.23-.12-.46a3.38,3.38,0,0,0,.31-.45c.09-.15.23-.31.54-.12a8,8,0,0,0,1,.54c.43.21.88.39,1.32.58Z"/><path class="cls-2" d="M30.85,14.48a.75.75,0,0,1-.07.12l-.58.49c-.2.16-.21.09-.33,0-.59-.61-1.2-1.22-1.81-1.81-.12-.12-.17-.21,0-.34s.32-.39.49-.58a.31.31,0,0,1,.23,0,7,7,0,0,1,2.05,2Z"/><path class="cls-2" d="M33.09,18.65l-1,.26a.19.19,0,0,1-.17-.1c-.15-.39-.24-.8-.41-1.19A7.26,7.26,0,0,0,31,16.54c-.12-.22-.25-.4.06-.58a.77.77,0,0,0,.19-.17c.41-.35.46-.36.72.1a12.87,12.87,0,0,1,.66,1.41C32.76,17.75,32.92,18.21,33.09,18.65Z"/><path class="cls-2" d="M12.43,28.51c.06,0,.15.09.18.16a7.57,7.57,0,0,0,1.57,1.95c.17.15.14.24,0,.37l-.48.47c-.12.13-.23.14-.34,0L11.8,29.59a2.31,2.31,0,0,1-.27-.42.41.41,0,0,1,0-.22C11.83,28.82,12.13,28.67,12.43,28.51Z"/><path class="cls-2" d="M18.43,10.21c.08.35.17.68.24,1a.21.21,0,0,1-.09.19c-.23.08-.48.12-.71.21-.39.16-.78.32-1.16.5-.2.09-.36.24-.54.32a.35.35,0,0,1-.28-.06,5.4,5.4,0,0,1-.36-.77.25.25,0,0,1,.1-.23c.42-.23.86-.44,1.3-.63S18,10.39,18.43,10.21Z"/><path class="cls-2" d="M18.73,34.39l.37-1.08a8.12,8.12,0,0,0,2.6.19c.25,0,.3.06.31.28a2.88,2.88,0,0,0,.14.71c.05.19,0,.26-.19.25a4.17,4.17,0,0,1-1.53-.13h-.17Z"/><path class="cls-2" d="M10,18.89c.13-.36.23-.71.37-1.08s.29-.69.43-1,.26-.54.37-.81.23-.25.42-.13l.54.38c.17.12.18.21.09.38-.31.63-.64,1.24-1,1.86-.08.16-.11.35-.2.52a.3.3,0,0,1-.25.11Z"/><path class="cls-2" d="M26.23,32.77c.07.15.16.31.22.47a5.36,5.36,0,0,1,.14.54c-.32.12-.66.28-1,.38-.54.15-1,.27-1.56.39a2.09,2.09,0,0,1-.5,0,.23.23,0,0,1-.14-.15c-.07-.23-.12-.46-.18-.7s0-.2.16-.23c.54-.1,1-.22,1.56-.35.34-.07.68-.16,1-.25Z"/><path class="cls-2" d="M24,11.37l.4-1.18c.69.27,1.36.51,2,.78.3.12.55.29.85.43h0c.24.19,0,.36-.06.47s-.1.54-.49.41-.88-.34-1.32-.49S24.48,11.51,24,11.37Z"/><path class="cls-2" d="M32.35,22.17h-.82c-.16,0-.26-.05-.25-.23s0-.45,0-.68.06-.26.25-.22h.08c.62,0,.72-.06.65-.67,0-.22,0-.31.26-.33a6.23,6.23,0,0,0,.62-.15c.21,0,.22.05.23.21a14.24,14.24,0,0,0,.08,1.84c0,.19-.08.21-.22.21Z"/><path class="cls-2" d="M23,11.05a8.89,8.89,0,0,0-3,.07,1.66,1.66,0,0,0-.06-.54,1.61,1.61,0,0,0-.1-.36c-.11-.24-.07-.31.21-.31h3c.14,0,.3,0,.26.21S23,10.79,23,11.05Z"/><path class="cls-2" d="M30.43,31.26a2.38,2.38,0,0,1-.38.45c-.63.48-1.28.94-1.93,1.4-.29.21-.35.18-.49-.17a4.19,4.19,0,0,0-.2-.49c-.1-.17,0-.27.12-.32a5.29,5.29,0,0,0,2-1.47.25.25,0,0,1,.22-.05c.24.17.45.37.68.54A.43.43,0,0,1,30.43,31.26Z"/><path class="cls-2" d="M11.94,27.46c-.28.11-.59.24-.89.33a.38.38,0,0,1-.24-.15c-.16-.45-.3-.91-.46-1.37A10.52,10.52,0,0,1,10,25.05c0-.07,0-.21.07-.22.28-.07.54-.11.87-.16Z"/><path class="cls-2" d="M32.12,28.87l-.77,1.42c-.29-.21-.54-.38-.78-.58a.37.37,0,0,1,0-.29c.11-.25.26-.48.37-.72s.26-.33.55-.16A6.62,6.62,0,0,0,32.12,28.87Z"/></g></svg>